<?xml version="1.0" encoding="utf-8"?>
<!-- Generator: Adobe Illustrator 16.0.4, SVG Export Plug-In . SVG Version: 6.00 Build 0)  -->
<!DOCTYPE svg PUBLIC "-//W3C//DTD SVG 1.1//EN" "http://www.w3.org/Graphics/SVG/1.1/DTD/svg11.dtd">
<svg version="1.1" id="Layer_1" xmlns="http://www.w3.org/2000/svg" xmlns:xlink="http://www.w3.org/1999/xlink" x="0px" y="0px"
	 width="100px" height="100px" viewBox="0 0 100 100" enable-background="new 0 0 100 100" xml:space="preserve">
<path fill="#010101" d="M100,50c0,27.685-22.314,50-50,50c-27.686,0-50-22.315-50-50C0,22.314,22.314,0,50,0
	C77.686,0,100,22.314,100,50 M87.5,31.689c-2.539,1.074-5.322,1.855-8.203,2.246c2.979-1.758,5.078-4.541,6.104-7.91
	c-2.783,1.66-5.664,2.783-8.887,3.467C73.975,26.757,70.264,25,66.211,25C58.35,25,52.1,31.348,52.1,39.257
	c0,1.026,0.098,2.198,0.342,3.223c-11.816-0.586-22.363-6.25-29.395-14.941c-1.172,2.197-1.856,4.638-1.856,7.177
	c0,4.981,2.442,9.278,6.25,11.817c-2.343,0-4.541-0.684-6.396-1.758v0.146c0,6.934,4.883,12.598,11.377,14.014
	c-1.172,0.342-2.442,0.439-3.711,0.439c-0.928,0-1.856-0.098-2.686-0.244c1.758,5.664,7.08,9.521,13.233,9.619
	c-4.883,3.809-10.889,6.494-17.627,6.494c-1.123,0-2.295-0.146-3.32-0.244c6.25,4.053,13.769,6.25,21.728,6.25
	c26.172,0,40.381-21.631,40.381-40.38v-1.856C83.203,37.061,85.547,34.473,87.5,31.689"/>
</svg>
