<?xml version="1.0" encoding="utf-8"?>
<!-- Generator: Adobe Illustrator 16.0.4, SVG Export Plug-In . SVG Version: 6.00 Build 0)  -->
<!DOCTYPE svg PUBLIC "-//W3C//DTD SVG 1.1//EN" "http://www.w3.org/Graphics/SVG/1.1/DTD/svg11.dtd">
<svg version="1.1" id="Layer_1" xmlns="http://www.w3.org/2000/svg" xmlns:xlink="http://www.w3.org/1999/xlink" x="0px" y="0px"
	 width="100px" height="100px" viewBox="0 0 100 100" enable-background="new 0 0 100 100" xml:space="preserve">
<path fill="#010101" d="M85.355,14.645c-19.526-19.526-51.185-19.526-70.71,0c-19.527,19.525-19.527,51.186,0,70.711
	c19.525,19.526,51.184,19.526,70.71,0C104.882,65.83,104.881,34.17,85.355,14.645z M73.679,51.229c-3.37,0-6.542,0-10.027,0
	c0,12.311,0,24.357,0,36.597c-5.153,0-9.99,0-15.162,0c0-12.079,0-24.117,0-36.518c-2.658,0-5.003,0-7.529,0
	c0-4.315,0-8.271,0-12.59c2.353-0.122,4.771-0.246,7.164-0.369c0.318-4.48,0.348-8.779,0.988-12.984
	c0.897-5.896,4.625-9.553,10.49-10.339c4.909-0.658,9.917-0.59,15.121-0.855c0,4.497,0,8.526,0,12.775
	c-2.506,0.127-4.966,0.292-7.429,0.366c-2.352,0.071-3.485,1.382-3.591,3.568c-0.114,2.375-0.025,4.76-0.025,7.668
	c3.855,0,7.429,0,11.354,0C74.568,42.905,74.137,46.942,73.679,51.229z"/>
</svg>
